<?xml version="1.0" standalone="no"?>
<!DOCTYPE svg PUBLIC "-//W3C//DTD SVG 20010904//EN"
 "http://www.w3.org/TR/2001/REC-SVG-20010904/DTD/svg10.dtd">
<svg version="1.0" xmlns="http://www.w3.org/2000/svg"
 width="300.000000pt" height="225.000000pt" viewBox="0 0 300.000000 225.000000"
 preserveAspectRatio="xMidYMid meet">
<metadata>
Created by potrace 1.10, written by Peter Selinger 2001-2011
</metadata>
<g transform="translate(0.000000,225.000000) scale(0.100000,-0.100000)"
fill="#000000" stroke="none">
<path d="M1403 1679 c-155 -26 -319 -144 -396 -286 -36 -67 -67 -190 -67 -265
0 -59 23 -181 39 -206 12 -20 194 85 185 107 -3 9 -8 41 -11 72 -13 138 75
284 209 344 83 38 184 39 273 5 69 -27 149 -101 182 -169 l22 -44 -182 -105
c-100 -57 -206 -118 -235 -134 -63 -36 -58 -50 23 -73 39 -12 63 -13 95 -6 23
5 150 71 281 146 l239 138 -6 36 c-4 20 -16 61 -29 91 -99 249 -356 393 -622
349z m290 -66 c73 -29 153 -86 215 -153 38 -41 103 -181 100 -215 -3 -27 -18
-38 -183 -133 -253 -147 -260 -150 -310 -155 -79 -9 -66 15 40 73 135 74 276
164 294 187 18 22 19 27 6 64 -56 158 -259 263 -435 224 -94 -20 -204 -102
-255 -190 -34 -56 -58 -168 -50 -226 7 -52 -7 -73 -69 -103 -47 -23 -57 -6
-63 101 -6 105 7 176 48 263 70 147 211 258 365 286 16 3 30 7 33 9 2 3 45 3
95 1 73 -2 106 -9 169 -33z"/>
<path d="M1445 1326 c-60 -19 -93 -44 -121 -91 -24 -41 -45 -145 -29 -145 7 0
288 159 329 186 17 11 15 14 -20 32 -53 27 -111 34 -159 18z m79 -32 c9 -3 16
-10 16 -14 0 -10 -170 -110 -187 -110 -36 0 20 79 77 108 46 23 67 26 94 16z"/>
<path d="M1850 920 c-226 -131 -293 -157 -383 -145 -66 9 -153 48 -194 87
l-31 30 -96 -54 -97 -55 64 -60 c107 -100 209 -146 347 -158 205 -18 426 98
527 275 32 56 76 175 71 190 -2 5 -95 -45 -208 -110z m110 -48 c-121 -228
-424 -334 -658 -230 -55 24 -142 80 -165 106 -17 18 -17 21 -1 36 9 9 34 26
56 37 l39 20 52 -34 c102 -68 207 -87 312 -58 35 10 124 52 199 95 222 126
218 125 166 28z"/>
</g>
</svg>
