<?xml version="1.0" standalone="no"?>
<!DOCTYPE svg PUBLIC "-//W3C//DTD SVG 20010904//EN"
 "http://www.w3.org/TR/2001/REC-SVG-20010904/DTD/svg10.dtd">
<svg version="1.0" xmlns="http://www.w3.org/2000/svg"
 width="300.000000pt" height="420.000000pt" viewBox="0 0 300.000000 420.000000"
 preserveAspectRatio="xMidYMid meet">
<metadata>
Created by potrace 1.10, written by Peter Selinger 2001-2011
</metadata>
<g transform="translate(0.000000,420.000000) scale(0.100000,-0.100000)"
fill="#000000" stroke="none">
<path d="M1366 4098 c-406 -41 -806 -371 -1037 -853 -182 -379 -260 -771 -246
-1235 13 -398 89 -722 247 -1045 106 -218 209 -364 363 -514 353 -345 801
-442 1217 -262 447 192 819 733 944 1371 128 653 22 1330 -292 1855 -62 104
-167 237 -260 329 -209 206 -451 330 -697 356 -102 11 -116 11 -239 -2z m374
-57 c112 -28 303 -123 411 -205 175 -133 336 -330 453 -556 182 -352 263 -681
273 -1110 8 -339 -28 -600 -122 -886 -51 -154 -157 -382 -230 -495 -421 -653
-1081 -838 -1634 -459 -640 438 -941 1466 -711 2420 137 563 446 1007 840
1205 97 49 164 72 275 96 120 25 322 20 445 -10z"/>
<path d="M1362 4029 c-150 -19 -359 -104 -481 -194 -385 -287 -632 -747 -727
-1352 -22 -141 -29 -451 -15 -613 57 -639 322 -1181 725 -1484 336 -252 756
-286 1115 -90 354 193 670 645 792 1134 178 707 72 1451 -283 1993 -286 436
-704 661 -1126 606z m227 -24 c2 -3 -45 -4 -105 -4 -69 1 -96 4 -74 8 36 7
171 4 179 -4z m6 -35 c178 -26 363 -99 498 -198 199 -146 396 -399 511 -659
253 -571 277 -1256 65 -1859 -146 -414 -430 -766 -744 -918 -175 -86 -293
-111 -475 -103 -335 15 -633 192 -879 523 -200 269 -351 684 -392 1077 -18
166 -6 543 20 692 82 453 247 811 498 1075 54 57 134 130 177 162 213 159 495
240 721 208z m280 -36 c20 -8 35 -17 33 -20 -3 -2 -25 4 -49 15 -52 23 -38 28
16 5z m-490 -3732 c-7 -7 -144 21 -140 28 2 4 36 0 74 -9 38 -8 68 -17 66 -19z
m178 -4 c-6 -11 -65 -10 -82 1 -10 6 3 9 36 8 28 -1 49 -5 46 -9z"/>
<path d="M1400 3934 c-522 -64 -948 -524 -1121 -1212 -58 -230 -73 -358 -73
-622 0 -265 17 -401 74 -625 126 -493 403 -894 751 -1085 643 -354 1370 89
1649 1005 81 264 118 647 91 935 -58 612 -320 1136 -706 1412 -94 68 -251 141
-355 167 -83 21 -241 33 -310 25z m305 -62 c339 -91 613 -343 810 -747 81
-165 136 -329 175 -520 39 -194 50 -304 50 -496 0 -196 -13 -324 -51 -511
-131 -647 -513 -1139 -980 -1262 -89 -24 -261 -32 -356 -16 -468 75 -877 529
-1035 1150 -51 203 -69 330 -75 545 -6 238 6 398 46 592 128 619 471 1089 906
1240 39 14 102 31 140 39 92 18 276 11 370 -14z"/>
<path d="M1338 3845 c-196 -37 -381 -140 -535 -298 -149 -151 -215 -247 -310
-443 -201 -418 -266 -910 -187 -1414 17 -109 22 -130 33 -130 18 0 103 85 128
127 70 119 105 242 183 633 109 554 193 771 365 946 128 129 263 184 461 184
390 0 623 -249 759 -815 19 -77 52 -231 74 -342 74 -372 122 -526 197 -635 24
-35 129 -116 138 -107 11 11 47 232 57 355 52 622 -148 1258 -514 1632 -137
141 -319 250 -484 293 -104 26 -266 33 -365 14z m337 -31 c594 -150 1025 -899
1008 -1751 -4 -222 -33 -437 -62 -466 -16 -16 -104 82 -139 154 -53 111 -79
200 -131 449 -11 52 -25 120 -30 150 -6 30 -17 87 -26 125 -9 39 -22 102 -30
140 -33 162 -117 392 -184 505 -62 105 -95 145 -170 207 -127 104 -249 145
-432 145 -139 -1 -212 -17 -327 -74 -137 -67 -233 -175 -326 -365 -74 -150
-124 -327 -196 -696 -23 -112 -46 -206 -54 -212 -8 -6 -15 -42 -19 -90 -9
-130 -72 -294 -145 -382 -40 -48 -72 -56 -73 -20 0 12 -3 31 -5 42 -31 135
-45 529 -25 700 28 236 114 542 203 720 47 94 113 208 131 227 6 7 25 33 42
57 107 158 324 331 495 394 63 24 184 53 245 60 58 6 191 -4 250 -19z"/>
<path d="M1446 3788 c-28 -16 -46 -71 -46 -142 0 -54 3 -64 15 -60 8 4 26 -1
40 -10 34 -23 43 -20 12 4 -51 41 -59 129 -16 185 24 30 22 38 -5 23z"/>
<path d="M1476 3738 c-9 -12 -16 -39 -16 -59 0 -41 30 -87 48 -75 17 10 15 42
-4 60 -20 21 -15 61 9 60 20 -2 22 7 5 24 -17 17 -25 15 -42 -10z"/>
<path d="M1609 3738 c-5 -50 -18 -78 -35 -71 -10 4 -14 -3 -14 -30 0 -27 -7
-40 -27 -56 l-28 -21 35 12 c19 6 42 17 51 24 15 14 39 96 39 135 0 21 -19 27
-21 7z"/>
<path d="M1310 3703 c1 -35 2 -37 15 -19 18 24 20 21 29 -26 7 -41 1 -48 -20
-20 -13 16 -13 16 -14 -3 0 -29 16 -49 34 -42 11 4 16 19 16 47 0 48 -12 75
-40 90 -18 10 -20 7 -20 -27z"/>
<path d="M1243 3716 c3 -8 9 -39 13 -68 l6 -53 -27 30 -26 30 6 -28 c3 -15 14
-41 24 -57 l18 -30 18 20 c18 19 18 25 4 92 -8 42 -20 73 -28 76 -10 3 -12 0
-8 -12z"/>
<path d="M1666 3708 c-9 -35 -7 -43 6 -30 21 21 30 13 23 -20 -11 -48 -17 -54
-28 -27 l-9 24 -10 -28 c-12 -33 0 -51 25 -41 16 6 37 60 37 96 0 47 -33 66
-44 26z"/>
<path d="M1843 3697 c20 -12 40 -32 44 -45 7 -30 -12 -72 -33 -72 -14 0 -16
-8 -10 -52 5 -37 4 -53 -6 -59 -7 -4 -9 -11 -5 -15 11 -11 45 24 77 82 30 52
38 84 21 84 -5 0 -12 -8 -14 -17 -3 -10 -5 -2 -6 17 -2 38 -23 71 -58 89 -40
20 -49 10 -10 -12z"/>
<path d="M1772 3688 c-7 -7 -12 -19 -12 -27 0 -8 -10 -28 -23 -45 -13 -17 -27
-39 -30 -50 -7 -18 -28 -19 -84 -1 -13 4 -23 3 -23 -2 0 -17 87 -31 112 -19
22 11 87 118 88 144 0 15 -12 16 -28 0z"/>
<path d="M1077 3683 c-14 -13 -7 -24 10 -15 12 7 29 1 65 -25 54 -39 60 -36
22 14 -19 26 -32 33 -58 33 -18 0 -36 -3 -39 -7z"/>
<path d="M1820 3644 c-14 -35 -13 -44 5 -44 17 0 35 38 28 58 -8 20 -23 14
-33 -14z"/>
<path d="M1060 3632 c0 -5 9 -17 20 -27 16 -14 20 -15 20 -4 0 16 -19 39 -32
39 -4 0 -8 -4 -8 -8z"/>
<path d="M1120 3605 c0 -13 55 -86 58 -77 1 5 12 8 22 5 33 -9 22 12 -24 45
-43 31 -56 37 -56 27z"/>
<path d="M1786 3574 c-10 -27 -6 -68 9 -88 16 -21 32 -16 19 5 -4 7 -7 32 -5
56 2 42 -11 58 -23 27z"/>
<path d="M1984 3572 c-11 -7 -74 -115 -74 -126 0 -21 23 2 55 54 35 57 43 88
19 72z"/>
<path d="M896 3531 c-16 -9 -32 -23 -34 -31 -4 -11 0 -10 12 3 22 22 28 21 77
-4 23 -11 43 -18 46 -15 8 8 -17 35 -46 50 -22 11 -30 11 -55 -3z"/>
<path d="M1010 3513 c0 -7 13 -27 30 -45 16 -18 30 -27 30 -21 0 7 -13 27 -30
45 -16 18 -30 27 -30 21z"/>
<path d="M2110 3504 c0 -5 9 -20 20 -34 25 -32 25 -72 2 -93 -23 -21 -36 -21
-52 -2 -17 21 -23 19 -43 -15 -14 -23 -15 -30 -5 -30 8 0 19 5 24 10 7 7 19 7
34 2 l24 -9 -27 -26 c-21 -22 -23 -27 -9 -27 26 0 102 81 102 108 0 32 -24 84
-49 106 -11 11 -21 15 -21 10z"/>
<path d="M2030 3449 c-49 -56 -57 -69 -42 -69 16 0 103 100 97 110 -8 14 -6
16 -55 -41z"/>
<path d="M955 3424 c21 -20 41 -32 42 -27 2 6 15 8 28 5 42 -8 28 8 -30 34
-76 33 -87 30 -40 -12z"/>
<path d="M2092 3427 c-13 -14 -19 -27 -14 -31 15 -9 45 19 41 38 -4 16 -7 15
-27 -7z"/>
<path d="M800 3405 c0 -10 143 -75 152 -69 13 9 9 -15 -8 -41 -10 -15 -12 -25
-5 -25 6 0 18 12 28 26 15 24 15 28 1 51 -10 17 -26 27 -45 28 -16 1 -43 10
-60 19 -31 16 -63 21 -63 11z"/>
<path d="M2210 3384 c0 -11 53 -74 62 -74 11 0 -43 79 -54 80 -5 0 -8 -3 -8
-6z"/>
<path d="M780 3364 c0 -11 11 -35 25 -54 14 -19 25 -42 25 -53 0 -10 7 -31 16
-47 16 -26 16 -29 -10 -66 -27 -40 -32 -54 -18 -54 16 0 67 116 54 122 -4 2
-20 32 -36 68 -16 36 -35 74 -42 85 -14 19 -14 19 -14 -1z"/>
<path d="M2188 3316 c-24 -18 -23 -30 2 -23 26 7 25 -2 -5 -35 -30 -35 -39
-35 -31 -3 8 31 -8 33 -28 3 -11 -16 -13 -25 -4 -35 16 -20 30 -16 66 17 49
44 48 113 0 76z"/>
<path d="M875 3290 c-9 -27 -2 -34 25 -25 12 4 20 13 18 23 -5 25 -35 26 -43
2z"/>
<path d="M2050 3262 c0 -14 61 -94 67 -89 5 5 -56 97 -64 97 -2 0 -3 -4 -3 -8z"/>
<path d="M700 3243 c0 -5 4 -13 8 -18 12 -17 89 -75 100 -75 14 0 21 35 11 51
-8 12 -11 12 -18 -1 -8 -12 -17 -9 -50 18 -41 33 -51 38 -51 25z"/>
<path d="M2240 3220 c-25 -16 -52 -30 -60 -30 -9 0 -21 -5 -28 -12 -15 -15
-16 -64 -1 -73 16 -10 24 4 11 17 -16 16 -15 39 2 32 18 -7 126 62 126 81 0
18 4 20 -50 -15z"/>
<path d="M660 3181 c0 -6 5 -13 10 -16 6 -3 10 -11 10 -18 0 -8 -3 -8 -12 1
-16 16 -28 15 -28 -1 0 -17 107 -80 125 -74 19 8 27 -4 14 -19 -6 -7 -9 -19
-6 -26 3 -8 9 -2 15 14 15 37 -2 68 -61 113 -46 35 -67 43 -67 26z"/>
<path d="M2283 3173 c-25 -10 -12 -23 22 -23 24 0 35 5 35 15 0 15 -31 19 -57
8z"/>
<path d="M2196 3103 l-25 -37 23 -31 c13 -17 26 -39 29 -50 3 -14 5 -15 6 -4
1 13 17 18 72 23 39 4 81 11 93 16 36 14 -6 23 -51 11 -52 -15 -73 -14 -73 4
0 25 23 65 37 65 19 0 16 17 -4 24 -19 8 -27 -3 -50 -66 -20 -55 -29 -59 -44
-22 -7 20 -6 31 4 43 8 9 20 26 26 39 20 39 -15 27 -43 -15z"/>
<path d="M613 3093 c-7 -2 -10 -10 -7 -18 4 -8 -6 -20 -24 -29 -28 -15 -63
-70 -61 -98 0 -7 6 -1 12 14 21 45 48 68 81 68 41 0 94 -33 102 -65 9 -36 27
-32 19 5 -4 18 -3 30 4 30 19 0 -1 29 -33 48 -18 11 -44 26 -57 35 -13 8 -29
13 -36 10z"/>
<path d="M2367 2952 c-31 -34 -57 -68 -57 -76 0 -26 -18 -18 -36 17 -10 17
-19 27 -21 20 -8 -23 30 -62 60 -63 18 0 27 5 25 12 -4 12 4 25 60 89 57 64
30 65 -31 1z"/>
<path d="M574 2989 c-8 -14 -1 -20 64 -54 77 -42 87 -8 12 43 -36 24 -65 28
-76 11z"/>
<path d="M2267 2958 c-8 -28 13 -42 32 -23 12 11 12 17 1 29 -17 22 -27 20
-33 -6z"/>
<path d="M540 2920 c0 -5 18 -19 40 -30 44 -22 44 -42 2 -40 -57 4 -83 0 -76
-11 4 -8 35 -10 90 -7 l84 4 -6 -34 c-8 -43 11 -36 21 7 8 36 -13 59 -84 96
-54 27 -71 31 -71 15z"/>
<path d="M2430 2911 c0 -5 -10 -12 -22 -16 -20 -6 -21 -8 -5 -12 18 -5 47 12
47 28 0 5 -4 9 -10 9 -5 0 -10 -4 -10 -9z"/>
<path d="M2474 2893 c5 -16 -3 -36 -28 -74 -20 -28 -36 -55 -36 -60 0 -5 -15
-16 -32 -25 -18 -10 -28 -19 -21 -21 7 -2 9 -11 6 -19 -7 -19 17 -18 84 3 54
17 58 23 43 58 -7 16 -9 16 -9 4 -1 -9 -8 -20 -17 -23 -23 -9 -36 -7 -29 4 3
6 1 10 -4 10 -21 0 -10 20 19 35 40 21 58 92 29 119 -8 8 -10 6 -5 -11z"/>
<path d="M2380 2840 c-14 -11 -31 -20 -37 -20 -7 0 -13 -5 -13 -11 0 -6 6 -9
14 -6 11 4 9 -4 -6 -29 -31 -53 -3 -40 42 19 53 70 53 88 0 47z"/>
<path d="M480 2811 c0 -5 23 -28 51 -52 28 -23 46 -45 40 -48 -14 -9 0 -27 27
-35 12 -4 22 -15 22 -26 0 -10 5 -22 10 -25 15 -9 12 43 -2 61 -7 9 -24 25
-37 37 -13 12 -33 32 -44 45 -27 29 -67 55 -67 43z"/>
<path d="M610 2765 c0 -28 24 -34 34 -9 8 20 -1 34 -20 34 -8 0 -14 -10 -14
-25z"/>
<path d="M2536 2679 c7 -63 -8 -86 -50 -75 -19 5 -26 1 -31 -14 -4 -14 -15
-20 -35 -20 -32 0 -53 24 -64 73 -4 15 -11 25 -15 22 -14 -8 9 -73 35 -101 28
-29 67 -31 94 -4 11 11 28 20 39 20 23 0 51 41 51 72 -1 13 -7 37 -15 53 -14
29 -14 28 -9 -26z"/>
<path d="M476 2664 c-28 -27 -15 -50 39 -68 43 -15 71 -11 80 12 6 16 -13 34
-30 28 -5 -2 -17 -7 -25 -10 -9 -4 -24 0 -35 8 -16 12 -17 16 -6 30 17 21 -2
21 -23 0z"/>
<path d="M2482 2669 c-26 -10 -21 -29 8 -29 18 0 35 26 22 34 -4 2 -17 0 -30
-5z"/>
<path d="M2407 2644 c-15 -8 -25 -19 -22 -24 9 -15 41 -12 55 5 20 24 -1 36
-33 19z"/>
<path d="M420 2618 c0 -32 31 -83 62 -101 32 -18 103 -24 93 -7 -3 5 4 17 15
27 12 10 26 27 32 38 8 15 3 13 -19 -7 -48 -46 -124 -30 -163 35 -13 21 -20
26 -20 15z"/>
<path d="M2408 2496 c-20 -19 -32 -71 -22 -88 5 -7 9 -29 11 -48 4 -53 20
-138 22 -112 1 15 13 30 36 43 19 12 35 25 35 31 0 11 -38 1 -58 -15 -7 -5
-14 -8 -16 -6 -2 2 -6 42 -9 89 -4 55 -3 80 3 70 8 -13 11 -13 25 0 13 13 13
19 2 34 -12 17 -15 17 -29 2z"/>
<path d="M411 2474 c-18 -15 -31 -35 -30 -47 l0 -22 11 22 c7 14 30 29 60 39
54 18 55 18 16 28 -20 4 -34 0 -57 -20z"/>
<path d="M2530 2467 c-147 -78 -144 -119 8 -92 50 9 39 27 -13 21 -54 -6 -57
5 -11 33 60 37 73 68 16 38z"/>
<path d="M510 2444 c-67 -23 -71 -34 -14 -34 40 1 52 5 67 25 21 30 12 31 -53
9z"/>
<path d="M2594 2344 c4 -37 2 -55 -10 -72 -18 -26 -59 -29 -73 -4 -9 15 -15
12 -50 -25 -22 -24 -38 -43 -36 -43 2 0 -2 -12 -9 -26 -8 -14 -11 -35 -8 -47
6 -21 7 -21 10 3 7 46 29 60 98 60 62 0 90 14 63 31 -11 6 -9 12 9 29 17 17
22 32 22 75 0 30 -5 57 -11 61 -9 5 -10 -6 -5 -42z"/>
<path d="M376 2332 c-12 -19 -18 -92 -8 -92 5 0 12 23 14 50 3 52 3 56 -6 42z"/>
<path d="M2538 2333 c-30 -5 -38 -27 -13 -37 23 -8 45 4 45 25 0 10 -1 18 -2
18 -2 -1 -15 -4 -30 -6z"/>
<path d="M460 2320 c8 -5 23 -10 33 -10 19 0 23 -15 7 -25 -17 -11 -11 -25 10
-25 26 0 37 27 19 45 -8 8 -30 17 -49 20 -25 4 -31 3 -20 -5z"/>
<path d="M567 2281 c-4 -29 -6 -56 -2 -59 11 -12 16 8 13 59 l-3 54 -8 -54z"/>
<path d="M412 2293 c2 -10 13 -19 26 -21 24 -4 29 7 10 26 -18 18 -40 15 -36
-5z"/>
<path d="M381 2190 c-22 -42 -28 -100 -11 -100 6 0 10 15 10 34 0 70 76 92 95
29 7 -27 14 -33 37 -33 15 0 28 5 28 10 0 6 -4 10 -9 10 -15 0 -41 30 -41 47
0 11 6 14 26 9 19 -5 25 -3 22 6 -5 14 -44 25 -99 27 -33 1 -39 -3 -58 -39z"/>
<path d="M407 2144 c-15 -15 -6 -24 24 -24 20 0 29 4 27 13 -5 14 -40 21 -51
11z"/>
<path d="M2453 2134 c-3 -9 0 -20 8 -25 19 -12 42 -11 34 1 -4 6 11 10 37 9
37 -1 40 -2 18 -9 -24 -9 -24 -9 5 -7 23 2 30 7 30 22 0 18 -8 20 -63 23 -50
2 -63 0 -69 -14z"/>
<path d="M395 2070 c-4 -6 5 -10 22 -11 15 0 50 -2 76 -4 35 -3 47 -1 44 8 -5
15 -133 22 -142 7z"/>
<path d="M1321 3395 c-253 -55 -421 -255 -531 -631 -22 -75 -67 -269 -100
-431 -89 -435 -123 -555 -191 -669 -34 -56 -118 -134 -145 -134 -20 0 -19 -5
35 -169 168 -509 463 -848 851 -977 79 -26 97 -28 245 -29 155 0 163 1 262 33
163 54 304 142 431 272 205 208 341 449 437 775 13 44 23 80 22 80 -1 1 -17 8
-36 15 -49 20 -125 99 -159 166 -67 134 -90 217 -212 794 -125 585 -294 839
-605 905 -86 18 -219 18 -304 0z m340 -34 c197 -50 355 -232 454 -525 20 -60
39 -118 41 -130 2 -12 15 -66 28 -121 26 -103 45 -195 76 -350 38 -193 80
-363 100 -410 79 -185 137 -270 206 -303 25 -11 34 -22 34 -40 0 -87 -177
-481 -276 -613 -76 -102 -201 -236 -265 -286 -128 -98 -313 -185 -416 -197
-35 -3 -45 0 -66 22 -13 15 -38 40 -56 55 l-32 28 -35 -26 c-19 -15 -45 -38
-59 -52 l-24 -26 -6 26 c-4 15 -4 38 -1 52 5 18 2 25 -8 25 -8 0 -28 16 -45
35 -34 39 -43 42 -61 20 -7 -8 -27 -15 -45 -15 -26 0 -40 8 -64 37 -17 21 -31
43 -31 50 0 8 -11 10 -35 6 -44 -7 -80 22 -97 79 -8 26 -16 37 -25 33 -7 -3
-19 -8 -27 -11 -7 -3 -26 5 -41 18 -20 18 -28 36 -32 71 -5 46 -7 47 -39 47
-46 0 -68 35 -68 107 l0 53 -33 0 c-44 0 -57 26 -50 106 4 58 3 63 -16 66 -11
2 -29 15 -40 29 -16 23 -18 33 -9 70 5 24 13 52 17 62 5 13 2 17 -14 17 -34 0
-47 41 -32 98 14 53 41 104 58 109 17 6 74 -84 80 -125 4 -28 0 -41 -15 -55
-19 -17 -19 -18 19 -56 42 -42 49 -73 22 -103 -16 -18 -15 -21 19 -56 47 -49
61 -77 53 -111 -5 -25 -2 -30 25 -41 46 -19 73 -58 65 -96 -5 -30 -3 -33 24
-39 50 -11 81 -42 81 -81 0 -34 0 -34 45 -34 57 0 100 -36 92 -76 -4 -23 -2
-25 22 -18 64 19 113 -1 125 -52 6 -24 7 -24 36 -9 54 28 130 18 130 -18 0
-13 30 -47 41 -47 5 0 18 18 29 40 11 22 28 40 38 41 36 2 68 -4 95 -17 23
-13 27 -13 27 0 0 25 44 68 70 69 14 1 37 -2 53 -6 25 -7 27 -5 27 22 0 40 40
71 91 71 34 0 39 3 39 24 0 35 36 74 80 87 36 11 38 13 33 46 -7 39 18 73 68
93 26 11 29 16 23 46 -7 38 22 94 62 121 22 14 22 17 9 36 -24 34 -18 64 21
107 34 38 36 42 20 59 -24 27 -19 72 14 124 39 62 61 62 87 0 32 -76 36 -102
18 -129 -8 -13 -23 -24 -31 -24 -12 0 -14 -5 -9 -17 4 -10 10 -43 12 -74 5
-50 3 -58 -18 -73 -13 -9 -31 -16 -41 -16 -15 0 -16 -4 -8 -26 15 -40 12 -110
-6 -128 -16 -17 -27 -20 -56 -17 -15 2 -18 -6 -18 -54 0 -73 -20 -105 -66
-105 -26 0 -34 -4 -34 -17 0 -75 -46 -132 -93 -114 -23 9 -26 7 -41 -33 -23
-61 -47 -80 -90 -73 -31 5 -35 2 -46 -24 -25 -59 -100 -90 -130 -54 -18 22
-27 19 -61 -20 -17 -19 -36 -35 -43 -35 -7 0 -11 -19 -11 -49 0 -54 18 -55 29
0 3 16 17 40 32 54 22 21 32 23 74 18 54 -6 100 14 121 54 7 13 17 23 23 24
50 3 92 30 116 75 11 18 27 31 48 35 18 4 39 12 48 19 21 18 44 64 44 89 0 13
11 23 35 31 40 13 75 69 75 119 0 21 6 32 20 36 37 12 60 54 60 111 0 43 4 57
24 76 33 31 44 64 40 117 -3 31 1 52 16 76 24 39 25 53 3 122 -37 119 -102
125 -158 14 -11 -22 -15 -49 -13 -80 4 -36 -1 -56 -20 -89 -19 -33 -23 -52
-19 -82 4 -32 0 -46 -25 -79 -16 -22 -32 -57 -35 -78 -4 -28 -18 -49 -50 -79
-30 -28 -43 -49 -43 -67 0 -20 -10 -33 -41 -52 -22 -15 -49 -42 -61 -61 -11
-18 -27 -34 -36 -34 -27 0 -82 -38 -91 -64 -8 -18 -19 -24 -56 -28 -32 -4 -55
-14 -75 -33 -26 -24 -33 -27 -78 -21 -45 5 -53 3 -87 -24 -21 -17 -40 -30 -42
-30 -3 0 -18 14 -33 30 -30 32 -57 37 -109 19 -29 -10 -33 -8 -60 19 -28 31
-72 49 -90 38 -6 -4 -18 3 -28 15 -37 46 -65 67 -97 73 -25 5 -37 14 -46 37
-7 16 -32 43 -55 59 -32 22 -44 38 -49 64 -5 24 -19 44 -45 65 -30 24 -39 39
-44 71 -3 22 -19 58 -35 81 -24 33 -29 48 -25 74 4 25 -1 45 -20 78 -22 37
-25 53 -21 93 4 42 1 57 -26 102 -34 58 -47 67 -86 58 -19 -5 -32 -21 -50 -62
-28 -65 -31 -115 -7 -151 12 -19 18 -47 18 -90 0 -56 3 -65 32 -95 25 -26 31
-41 30 -73 -2 -63 10 -92 47 -114 27 -17 34 -29 39 -61 7 -53 30 -87 71 -104
26 -11 35 -22 40 -48 8 -45 37 -75 84 -88 25 -7 46 -24 67 -52 21 -29 41 -45
65 -51 19 -5 51 -23 70 -42 56 -52 69 -56 130 -40 34 8 76 -25 85 -68 4 -17
12 -38 17 -44 8 -10 3 -13 -19 -13 -93 0 -326 113 -425 206 -20 19 -39 34 -43
34 -8 0 -76 71 -137 143 -127 152 -237 357 -313 581 l-46 138 70 67 c39 36 71
71 71 78 0 6 6 18 13 25 20 20 55 110 88 221 42 146 46 162 64 257 9 47 20
103 25 125 5 22 19 90 30 150 25 128 66 301 79 330 5 11 15 42 21 70 6 27 22
72 34 100 13 27 33 72 45 98 46 100 140 215 226 276 26 19 84 47 129 63 73 26
93 28 206 27 80 -1 149 -7 191 -18z m-113 -2954 c17 -16 19 -23 10 -29 -15 -9
-113 -10 -146 -2 -22 6 -20 9 24 40 50 36 63 35 112 -9z"/>
<path d="M1413 2891 c-6 -10 -9 -28 -6 -40 4 -15 -5 -31 -31 -57 -37 -37 -44
-62 -24 -82 9 -9 9 -15 0 -24 -9 -9 -24 -5 -63 17 -46 25 -58 27 -113 22 -33
-4 -74 -11 -91 -16 -16 -6 -42 -13 -56 -15 -14 -3 -31 -16 -38 -30 -12 -21
-11 -28 9 -56 16 -22 21 -41 18 -63 -6 -36 -1 -57 13 -57 5 0 9 14 9 31 0 17
4 39 10 49 8 15 4 23 -20 40 -41 29 -40 56 3 63 17 2 62 13 98 23 76 21 126
12 177 -31 l29 -24 42 30 c49 36 52 49 11 49 -20 0 -30 5 -30 15 0 21 36 55
59 55 18 0 19 5 14 55 -6 62 2 68 40 33 13 -13 48 -38 78 -56 66 -40 98 -85
107 -148 7 -48 8 -49 55 -62 27 -8 51 -11 54 -9 2 3 -6 20 -18 37 -20 26 -25
29 -35 16 -8 -12 -13 -13 -22 -4 -7 7 -12 17 -12 23 0 65 -53 131 -152 193
-75 47 -98 51 -115 23z"/>
<path d="M1460 2828 c0 -8 5 -19 11 -25 14 -14 4 -45 -13 -42 -7 1 -21 1 -31
0 -27 -2 -10 -21 19 -21 48 0 17 -53 -63 -106 l-55 -36 -28 27 c-44 42 -94 55
-149 40 -26 -7 -59 -16 -74 -19 -37 -9 -25 -26 19 -26 19 0 34 -3 34 -6 0 -3
-13 -19 -30 -34 -16 -15 -30 -34 -30 -41 0 -7 10 -3 24 10 37 35 50 19 43 -53
-3 -33 -11 -78 -17 -98 -10 -34 -15 -38 -43 -38 -58 0 -99 -30 -144 -105 -23
-38 -38 -72 -32 -73 16 -6 36 16 64 73 21 41 36 57 64 68 54 22 59 16 53 -71
-2 -42 -6 -79 -8 -81 -2 -2 -15 4 -28 13 -42 27 -50 18 -17 -19 17 -20 42 -57
55 -84 l25 -48 -26 -37 c-42 -63 -46 -91 -26 -183 10 -46 21 -83 25 -83 12 0
10 84 -2 96 -26 26 -1 154 30 154 6 0 23 -19 40 -42 16 -24 39 -52 50 -63 19
-20 19 -21 1 -22 -11 -1 -38 -10 -60 -20 l-41 -19 29 -35 c31 -37 53 -35 27 3
-9 12 -16 26 -16 30 0 17 69 18 125 1 l60 -19 6 -51 c9 -68 31 -103 92 -144
78 -52 77 -51 77 -36 0 18 -34 57 -50 57 -7 0 -28 11 -46 25 -24 18 -35 37
-42 72 -6 26 -9 49 -8 51 2 1 37 -3 79 -9 l75 -11 -19 -35 c-27 -48 -22 -77
15 -81 16 -2 33 1 39 7 8 8 2 11 -21 11 -21 0 -32 5 -32 14 0 23 47 72 96 101
l46 27 26 -25 c36 -33 65 -47 96 -47 35 0 146 31 146 41 0 17 -41 19 -73 4
-47 -22 -103 -22 -127 0 -11 10 -20 23 -20 29 0 11 93 96 104 96 3 0 6 -6 6
-12 1 -7 9 -31 19 -52 l19 -40 32 33 c37 37 33 56 -5 21 -14 -13 -28 -21 -31
-18 -11 11 -6 113 8 157 13 43 16 45 66 56 29 7 61 20 72 30 24 22 93 145 85
153 -8 8 -55 -39 -55 -56 0 -28 -41 -80 -72 -91 -55 -20 -59 -16 -52 40 4 28
8 61 9 72 1 12 3 25 4 30 0 4 18 -2 38 -13 21 -11 40 -20 44 -20 12 0 28 48
22 69 -7 29 -23 16 -23 -20 0 -16 -4 -29 -8 -29 -21 0 -112 130 -112 160 0 6
12 27 26 46 16 20 28 52 31 77 5 49 -19 173 -32 170 -13 -3 -19 -83 -6 -83 5
0 12 -17 16 -38 11 -70 -42 -159 -62 -104 -4 9 -22 37 -40 62 -24 31 -30 46
-21 48 38 12 78 36 78 47 0 18 -37 61 -45 53 -4 -3 1 -18 11 -32 9 -15 14 -29
11 -32 -10 -10 -91 -5 -137 8 -44 14 -45 15 -51 65 -9 68 -30 101 -97 148 -68
49 -72 50 -72 33z m94 -79 c31 -24 48 -54 52 -90 4 -34 -6 -37 -89 -24 -66 10
-67 10 -53 31 9 12 18 40 22 63 8 47 26 53 68 20z m-309 -115 c47 -22 49 -39
12 -69 -18 -14 -44 -37 -59 -52 l-27 -25 -6 28 c-3 16 -10 37 -16 46 -5 10 -9
31 -9 47 0 23 5 31 23 34 41 8 49 7 82 -9z m374 -50 c115 -52 180 -131 222
-267 34 -109 25 -208 -29 -319 -34 -70 -53 -96 -97 -132 -72 -58 -147 -86
-233 -86 -89 0 -130 13 -205 64 -156 106 -221 326 -151 504 61 153 147 227
309 266 40 9 131 -5 184 -30z"/>
<path d="M1404 2571 c-103 -26 -205 -118 -245 -219 -33 -82 -33 -232 0 -314
30 -76 106 -159 179 -195 49 -24 69 -28 142 -28 76 0 91 4 146 32 217 113 270
427 104 616 -57 65 -147 109 -229 113 -36 2 -80 0 -97 -5z m191 -45 c140 -65
212 -192 203 -355 -10 -181 -134 -317 -297 -328 -209 -15 -375 187 -339 412
13 81 38 134 90 191 91 99 232 132 343 80z"/>
<path d="M1351 2479 c-71 -35 -120 -93 -147 -172 -23 -70 -16 -198 14 -257 70
-135 217 -206 341 -165 67 22 143 91 178 163 24 50 28 69 28 147 0 71 -5 100
-21 136 -74 160 -242 223 -393 148z m242 -18 c18 -12 44 -29 59 -38 15 -10 31
-34 38 -57 7 -22 19 -46 28 -52 12 -8 17 -34 20 -100 4 -78 1 -96 -19 -139
-26 -58 -27 -60 -34 -53 -3 3 2 24 10 48 23 66 20 95 -15 120 -34 24 -90 43
-90 30 0 -5 -3 -15 -6 -24 -5 -13 3 -16 46 -16 l52 0 -4 -63 c-6 -103 -77
-192 -175 -222 -22 -6 -23 -4 -23 54 0 34 -4 61 -10 61 -5 0 -10 -4 -10 -9 0
-5 -9 -11 -20 -14 -26 -7 -26 -27 0 -34 16 -4 19 -11 14 -27 -4 -11 -8 -22 -9
-24 -5 -6 -58 19 -108 51 -95 61 -146 198 -117 316 6 28 16 51 20 51 4 0 8
-35 9 -77 1 -54 6 -82 16 -92 13 -14 15 0 15 121 l0 137 101 3 c56 2 102 1
103 -2 1 -3 0 -37 -2 -77 l-4 -72 -31 -3 c-27 -3 -33 -8 -40 -41 -13 -53 -2
-96 37 -151 l33 -47 36 40 c39 43 50 81 45 151 -3 41 -6 45 -30 48 -20 2 -28
9 -28 23 0 30 26 86 47 99 16 10 16 11 -4 7 -17 -4 -27 2 -40 23 -18 30 -39
40 -90 40 -18 0 -33 4 -33 8 0 37 158 38 213 3z m-101 -253 c2 -17 9 -22 26
-20 25 4 29 -10 7 -28 -9 -8 -13 -21 -9 -36 7 -27 -13 -34 -23 -8 -5 13 -9 12
-31 -8 l-25 -23 7 36 c5 28 3 38 -9 43 -21 7 -9 27 13 24 11 -2 18 5 20 20 2
12 7 22 12 22 5 0 10 -10 12 -22z"/>
<path d="M1607 2379 c39 -11 63 -43 63 -82 0 -20 -6 -30 -19 -34 -12 -3 -17
-11 -14 -19 7 -19 28 -2 50 39 14 27 14 31 -1 39 -9 5 -16 15 -16 23 0 20 -40
45 -70 44 -23 -1 -22 -2 7 -10z"/>
<path d="M1412 2339 l3 -34 -50 0 c-48 0 -50 1 -48 28 2 29 -11 37 -21 11 -9
-24 -8 -29 18 -59 13 -15 27 -41 30 -56 7 -36 36 -39 36 -4 0 15 12 37 30 53
33 32 38 63 14 83 -14 11 -15 9 -12 -22z"/>
<path d="M1290 2150 c0 -18 33 -28 62 -18 42 15 34 28 -17 28 -25 0 -45 -4
-45 -10z"/>
<path d="M1583 2118 c-59 -65 -93 -148 -68 -168 29 -24 76 14 119 98 35 69 -3
122 -51 70z m47 -21 c0 -22 -72 -128 -84 -124 -18 7 -10 36 26 88 32 47 58 63
58 36z"/>
<path d="M1366 2122 c-7 -12 24 -92 36 -92 5 0 8 -7 8 -15 0 -8 5 -15 10 -15
12 0 13 13 3 24 -4 4 -17 30 -29 58 -12 28 -24 46 -28 40z"/>
<path d="M1846 2715 c-20 -16 -35 -21 -45 -15 -10 5 -28 3 -46 -5 l-30 -13 36
-1 c19 -1 44 -7 54 -15 18 -13 22 -11 43 25 27 45 46 46 50 3 2 -16 12 -60 24
-99 24 -84 19 -142 -18 -198 -26 -39 -26 -40 -8 -78 9 -22 23 -44 31 -50 10
-9 13 -5 13 21 0 19 -7 38 -17 45 -16 12 -16 16 4 61 32 71 37 123 19 194 -9
34 -16 70 -16 79 0 22 -37 71 -53 71 -7 -1 -25 -12 -41 -25z"/>
<path d="M1075 2493 c-22 -23 -24 -29 -11 -31 32 -7 15 -24 -51 -53 -76 -34
-82 -40 -147 -160 l-46 -86 21 -27 c15 -19 28 -26 42 -22 14 3 29 -6 53 -32
35 -40 57 -41 25 -1 -10 13 -20 33 -23 44 -3 15 -10 19 -28 17 -14 -1 -34 -4
-45 -5 -14 -1 -21 5 -23 21 -2 12 1 22 6 22 5 0 26 33 47 73 20 39 45 81 54
91 20 23 88 55 118 56 18 0 23 9 33 56 7 30 10 58 7 60 -2 2 -16 -8 -32 -23z"/>
<path d="M1980 2344 c0 -3 8 -18 19 -32 10 -15 21 -36 23 -47 2 -11 10 -19 18
-17 62 14 70 14 70 -1 0 -20 -77 -165 -104 -195 -28 -32 -54 -45 -101 -51 -39
-6 -40 -7 -48 -59 -10 -63 -3 -76 24 -43 15 18 17 27 8 38 -15 17 11 38 55 47
42 9 104 79 149 166 20 41 37 80 37 87 0 20 -31 43 -58 43 -19 0 -33 9 -47 30
-18 27 -45 47 -45 34z"/>
<path d="M966 2194 c-9 -24 -7 -62 4 -69 6 -3 10 4 10 17 0 13 3 33 6 46 7 25
-11 31 -20 6z"/>
<path d="M1000 2096 c0 -25 5 -35 20 -39 20 -5 19 -6 -5 -59 -29 -63 -32 -123
-9 -217 8 -36 17 -76 20 -89 2 -12 15 -28 28 -34 20 -9 28 -7 47 11 25 23 29
24 72 21 30 -2 67 24 67 47 0 25 30 13 36 -14 21 -94 43 -125 139 -188 46 -30
90 -55 97 -55 22 0 38 22 38 52 0 15 9 37 19 47 11 11 27 31 36 45 16 24 16
28 2 50 -23 35 8 52 42 23 36 -30 96 -40 165 -27 93 17 135 33 152 58 14 20
13 25 -7 54 -17 24 -22 43 -20 80 1 29 -2 48 -8 48 -6 0 -11 -15 -11 -33 0
-18 -7 -42 -15 -54 -14 -20 -13 -23 21 -43 40 -25 42 -53 4 -58 -14 -2 -51
-12 -83 -23 -94 -32 -142 -25 -198 28 l-27 24 -40 -28 c-49 -33 -53 -53 -13
-53 17 0 32 -4 35 -9 8 -13 -43 -61 -65 -61 -16 0 -17 -6 -12 -49 6 -51 -11
-79 -29 -48 -5 9 -40 35 -79 58 -81 49 -119 101 -119 167 0 44 -2 45 -72 58
-41 7 -47 -1 -23 -32 8 -10 15 -25 15 -31 0 -18 -51 -16 -78 3 -13 9 -24 14
-25 13 -48 -92 -57 -89 -86 29 -29 118 -25 174 13 233 l27 40 -26 45 c-31 53
-45 56 -45 10z"/>
<path d="M612 1506 c-8 -19 -8 -27 3 -36 12 -10 17 -7 25 15 17 45 -8 64 -28
21z"/>
<path d="M2324 1516 c-3 -8 0 -24 6 -36 16 -29 33 -12 24 24 -7 28 -21 34 -30
12z"/>
<path d="M654 1445 c-7 -29 -1 -41 15 -30 14 8 14 55 1 55 -5 0 -12 -11 -16
-25z"/>
<path d="M2290 1446 c0 -14 5 -28 10 -31 6 -4 10 7 10 24 0 17 -4 31 -10 31
-5 0 -10 -11 -10 -24z"/>
<path d="M590 1430 c0 -20 25 -38 36 -27 8 7 -15 47 -26 47 -6 0 -10 -9 -10
-20z"/>
<path d="M2352 1438 c-18 -18 -15 -40 6 -36 9 2 18 13 20 26 4 24 -7 29 -26
10z"/>
<path d="M636 1335 c-8 -30 -1 -45 20 -45 11 0 14 9 12 32 -4 39 -23 47 -32
13z"/>
<path d="M2307 1354 c-4 -4 -7 -20 -7 -36 0 -23 4 -29 18 -26 11 3 16 12 14
28 -3 28 -15 44 -25 34z"/>
<path d="M1017 1332 c-9 -10 -22 -33 -28 -50 -7 -20 -18 -32 -28 -32 -24 0
-51 -32 -51 -59 0 -13 14 -52 31 -88 26 -55 29 -68 20 -95 -13 -38 0 -57 90
-133 34 -28 171 -110 205 -122 115 -41 201 -51 300 -34 126 22 257 92 367 194
45 42 51 56 48 102 -1 11 14 56 34 99 34 75 35 80 19 103 -9 14 -25 28 -35 30
-11 3 -29 23 -39 44 -11 21 -25 41 -31 44 -20 13 -20 -3 0 -36 12 -19 21 -45
21 -58 0 -21 3 -23 34 -17 19 4 37 2 40 -3 9 -13 -27 -105 -59 -153 -24 -36
-25 -41 -11 -57 22 -24 22 -25 -26 -71 -68 -64 -214 -157 -287 -181 -145 -49
-313 -25 -460 66 -74 46 -193 139 -200 157 -2 5 6 20 18 32 l21 23 -20 25
c-27 35 -60 114 -60 144 0 23 3 24 35 18 30 -5 35 -4 35 13 0 11 11 41 25 67
25 47 21 60 -8 28z"/>
<path d="M1859 1335 c-3 -5 -16 -41 -27 -80 -12 -38 -33 -87 -47 -107 -14 -20
-25 -50 -25 -67 0 -24 -9 -37 -46 -65 -83 -64 -150 -90 -232 -93 -92 -2 -147
14 -233 71 -67 45 -69 47 -67 86 1 28 -5 47 -19 63 -24 26 -46 75 -63 140 -7
26 -17 47 -21 47 -27 0 10 -121 57 -191 31 -47 34 -55 20 -65 -25 -18 -20 -28
42 -74 88 -66 154 -93 243 -98 102 -6 167 14 273 85 86 57 100 74 70 91 -13 7
-10 16 20 61 38 56 70 146 64 183 -2 13 -6 19 -9 13z"/>
<path d="M697 1304 c-11 -11 -8 -54 3 -54 6 0 13 6 16 14 7 17 -9 50 -19 40z"/>
<path d="M2254 1286 c-4 -16 -2 -32 4 -38 8 -8 13 -3 18 16 4 16 2 32 -4 38
-8 8 -13 3 -18 -16z"/>
<path d="M620 1261 c0 -5 7 -17 16 -25 8 -9 20 -16 25 -16 17 0 9 29 -10 40
-24 12 -31 13 -31 1z"/>
<path d="M1036 1259 c-4 -9 -6 -29 -4 -45 3 -27 1 -29 -29 -28 -18 1 -33 -2
-33 -7 0 -9 48 -109 57 -119 2 -2 15 8 28 23 15 15 31 24 40 21 20 -8 19 15
-1 37 -8 9 -24 44 -33 76 -13 40 -21 53 -25 42z m24 -118 c0 -26 -17 -36 -35
-21 -18 15 -8 40 16 40 12 0 19 -7 19 -19z"/>
<path d="M1886 1236 c-4 -19 -18 -55 -31 -81 -14 -25 -25 -48 -25 -51 0 -2 11
-4 24 -4 16 0 27 -7 31 -20 3 -11 12 -20 18 -20 11 1 67 99 67 119 0 5 -15 8
-32 7 -32 -1 -33 0 -30 35 4 48 -14 59 -22 15z m34 -106 c-6 -11 -15 -20 -21
-20 -13 0 -22 27 -15 45 4 13 10 14 26 5 16 -9 18 -15 10 -30z"/>
<path d="M2312 1255 c-25 -18 -29 -35 -8 -35 17 0 39 26 34 40 -2 6 -12 4 -26
-5z"/>
<path d="M695 1159 c-5 -14 -2 -25 6 -30 23 -15 30 -10 27 18 -4 33 -24 41
-33 12z"/>
<path d="M2242 1168 c-7 -7 -12 -20 -12 -31 0 -30 34 -16 38 16 4 29 -6 35
-26 15z"/>
<path d="M692 1078 c2 -17 11 -24 33 -26 l30 -4 -24 26 c-30 32 -43 33 -39 4z"/>
<path d="M2240 1075 c-22 -24 -22 -25 -4 -25 23 0 44 18 44 37 0 20 -14 16
-40 -12z"/>
<path d="M1047 1024 c-28 -34 -28 -36 -11 -55 23 -25 32 -24 46 6 13 30 35 29
55 -2 13 -19 12 -24 -7 -43 -11 -11 -18 -25 -15 -30 11 -17 22 -11 35 20 14
35 30 39 30 9 0 -18 2 -19 15 -9 24 20 28 5 10 -29 -21 -42 -8 -61 16 -22 28
47 49 41 49 -14 0 -46 14 -61 24 -25 3 11 8 29 12 40 4 15 -6 26 -52 51 -31
18 -82 56 -114 86 -32 29 -59 53 -61 53 -2 0 -17 -16 -32 -36z"/>
<path d="M1824 1029 c-43 -45 -151 -116 -218 -143 -32 -13 -53 -26 -48 -30 6
-3 18 -3 27 0 14 6 15 2 10 -30 -6 -31 -5 -36 12 -36 29 0 32 8 16 40 -8 17
-11 34 -8 40 9 15 25 2 25 -20 0 -10 5 -22 11 -26 9 -5 10 4 5 31 -6 28 -4 36
6 33 7 -3 14 -19 16 -36 2 -18 7 -32 12 -32 18 0 20 20 5 50 -13 25 -13 30 -1
30 7 0 16 7 20 15 3 8 10 15 17 15 6 0 9 -6 6 -14 -8 -19 26 -48 47 -40 23 9
20 19 -10 43 -22 17 -24 23 -14 36 13 16 45 21 35 6 -9 -16 16 -60 31 -54 18
7 18 27 -1 43 -17 14 -20 50 -5 50 5 0 17 -14 26 -31 l16 -31 24 23 c13 12 24
27 24 33 -1 10 -45 66 -53 66 -2 0 -16 -14 -33 -31z"/>
<path d="M774 1007 c-9 -25 0 -51 19 -55 12 -3 17 3 17 21 0 31 -27 57 -36 34z"/>
<path d="M2173 1013 c-19 -7 -17 -63 2 -63 10 0 15 11 15 35 0 19 -1 35 -2 34
-2 0 -9 -3 -15 -6z"/>
<path d="M830 975 c0 -12 24 -55 32 -55 12 0 10 34 -4 48 -12 12 -28 16 -28 7z"/>
<path d="M2107 973 c-4 -3 -7 -17 -7 -31 0 -21 2 -22 15 -12 8 7 15 21 15 31
0 19 -11 25 -23 12z"/>
<path d="M786 923 c-3 -4 -1 -12 5 -20 14 -16 52 -18 47 -1 -5 13 -44 29 -52
21z"/>
<path d="M2153 919 c-28 -10 -30 -29 -4 -29 20 0 47 25 34 33 -4 3 -18 1 -30
-4z"/>
<path d="M880 841 c0 -20 6 -30 20 -34 16 -4 20 0 20 23 0 16 -7 30 -16 34
-23 9 -24 8 -24 -23z"/>
<path d="M1356 839 c-14 -72 5 -85 21 -14 8 35 7 45 -2 45 -7 0 -15 -14 -19
-31z"/>
<path d="M2057 863 c-4 -3 -7 -17 -7 -30 0 -16 6 -23 20 -23 16 0 20 7 20 30
0 28 -17 40 -33 23z"/>
<path d="M1400 853 c0 -5 4 -14 9 -21 7 -11 9 -11 14 2 13 34 29 16 22 -24 -4
-26 -3 -40 4 -40 5 0 16 18 22 40 7 22 16 40 21 40 5 0 17 -18 25 -40 17 -43
20 -45 43 -30 12 8 13 13 2 27 -7 10 -15 26 -18 36 -5 14 -19 17 -75 17 -38 0
-69 -3 -69 -7z"/>
<path d="M940 833 c1 -20 28 -55 34 -45 8 13 -10 52 -24 52 -6 0 -10 -3 -10
-7z"/>
<path d="M1995 819 c-8 -23 -1 -34 14 -24 13 8 15 45 2 45 -5 0 -13 -9 -16
-21z"/>
<path d="M1002 728 c2 -12 11 -24 21 -26 14 -3 18 1 15 20 -2 12 -11 24 -21
26 -14 3 -18 -1 -15 -20z"/>
<path d="M1066 742 c-6 -10 21 -52 35 -52 5 0 9 6 9 13 0 18 -36 51 -44 39z"/>
<path d="M1878 733 c-19 -21 -24 -43 -9 -43 15 0 33 28 29 46 -3 14 -5 14 -20
-3z"/>
<path d="M1930 730 c-9 -16 -8 -22 6 -27 16 -6 34 11 34 35 0 19 -28 14 -40
-8z"/>
<path d="M1037 674 c-10 -11 3 -24 24 -24 23 0 25 15 3 24 -19 7 -19 7 -27 0z"/>
<path d="M1890 665 c-11 -13 -9 -15 15 -15 16 0 25 5 23 12 -7 19 -24 20 -38
3z"/>
<path d="M1152 649 c-23 -9 -23 -16 1 -46 6 -9 15 -10 28 -2 22 11 24 19 7 41
-10 12 -19 14 -36 7z"/>
<path d="M1210 653 c1 -14 27 -43 39 -43 16 0 13 15 -7 33 -20 18 -32 22 -32
10z"/>
<path d="M1726 644 c-17 -17 -21 -34 -8 -34 10 0 42 33 42 43 0 12 -18 7 -34
-9z"/>
<path d="M1779 637 c-9 -17 -8 -23 7 -34 16 -12 21 -11 31 4 18 24 16 40 -7
46 -14 4 -24 -1 -31 -16z"/>
<path d="M1389 590 c25 -21 44 -18 34 5 -3 8 -17 15 -32 15 l-26 -1 24 -19z"/>
<path d="M1551 596 c-19 -23 5 -28 30 -6 24 19 24 19 3 20 -12 0 -27 -6 -33
-14z"/>
<path d="M1313 584 c-8 -22 11 -37 36 -29 17 5 19 10 11 26 -13 23 -38 25 -47
3z"/>
<path d="M1614 585 c-7 -18 3 -35 22 -35 20 0 30 30 13 41 -20 12 -29 11 -35
-6z"/>
<path d="M1203 583 c-7 -2 -13 -9 -13 -15 0 -14 43 -6 48 10 4 12 -12 15 -35
5z"/>
<path d="M1732 578 c5 -15 48 -24 48 -10 0 10 -23 22 -42 22 -5 0 -8 -6 -6
-12z"/>
<path d="M1392 542 c-13 -4 -23 -11 -23 -17 0 -19 31 -16 57 4 22 18 24 21 8
20 -11 -1 -29 -4 -42 -7z"/>
<path d="M1542 531 c28 -22 53 -27 63 -12 7 13 -2 18 -50 26 l-40 8 27 -22z"/>
</g>
</svg>
